# xmcd
#
# Track frame offsets:
#	150
#	9720
#	22380
#	35370
#	49680
#	61185
#	74445
#	85935
#	99120
#	108585
#	118920
#	131835
#	143730
#	155085
#	169005
#	179460
#	190875
#	201330
#	214920
#	224835
#	238725
#	247485
#	258525
#	272265
#	282480
#
# Disc length: 3920 seconds
#
# Revision: 1
# Processed by: cddbd v1.5.2PL0 Copyright (c) Steve Scherf et al.
# Submitted via: audiograbber 1.83.01
#
DISCID=910f4e19
DTITLE=Various Artist - Original Country Disc 2
DYEAR=2018
DGENRE=Country
TTITLE0=Jim Reeves - Billy Bayou
TTITLE1=George Jones - White Lightning
TTITLE2=Willie Nelson - Crazy
TTITLE3=Slim Whitman - Indian Love Call
TTITLE4=Jean Shepher and Ferlin Husky - A Dear John Letter
TTITLE5=Hank Williams - Hey Good Lookin'
TTITLE6=Sonny James - Young Love
TTITLE7=Bobby Helms - My Special Angel
TTITLE8=Webb Pierce - Honky Tonk Song
TTITLE9=Jimmie Rodgers - Honeycomb
TTITLE10=Patsy Cline - I Fall To Pieces
TTITLE11=Marvin Rainwater - Whole Lotta Woman
TTITLE12=Eddy Arnold - That Do Make It Nice
TTITLE13=Tennessee Ernie Ford - Mule Train
TTITLE14=The Louvin Brothers - The Christian Life
TTITLE15=Carl Smith - Hey Joe
TTITLE16=Lefty Frizzell - Give Me More More More Of Your Kisses
TTITLE17=The Davis Sisters - I Forgot More Than You'll Ever Know
TTITLE18=Ned Miller - From A Jack To A King
TTITLE19=Johnny Cash - Don't Take Your Guns To Town
TTITLE20=Don Gibson - Blue Blue Day
TTITLE21=Sheb Wooley - That's My Pa
TTITLE22=Tex Ritter - Deck Of Cards
TTITLE23=Hank Thompson - Rub A Dub Dub
TTITLE24=Ray Price - My Shoes Keep Walking Back To You
EXTD=
EXTT0=
EXTT1=
EXTT2=
EXTT3=
EXTT4=
EXTT5=
EXTT6=
EXTT7=
EXTT8=
EXTT9=
EXTT10=
EXTT11=
EXTT12=
EXTT13=
EXTT14=
EXTT15=
EXTT16=
EXTT17=
EXTT18=
EXTT19=
EXTT20=
EXTT21=
EXTT22=
EXTT23=
EXTT24=
PLAYORDER=
